<?xml version="1.0" standalone="no"?>
<!DOCTYPE svg PUBLIC "-//W3C//DTD SVG 20010904//EN"
 "http://www.w3.org/TR/2001/REC-SVG-20010904/DTD/svg10.dtd">
<svg version="1.0" xmlns="http://www.w3.org/2000/svg"
 width="46.000000pt" height="84.000000pt" viewBox="0 0 46.000000 84.000000"
 preserveAspectRatio="xMidYMid meet">

<g transform="translate(0.000000,84.000000) scale(0.100000,-0.100000)"
fill="#000000" stroke="none">
<path d="M210 787 c0 -2 25 -30 56 -62 51 -55 114 -161 114 -193 0 -7 5 -10
10 -7 44 27 -58 207 -141 250 -27 15 -39 18 -39 12z"/>
<path d="M60 691 c0 -6 14 -18 31 -26 24 -13 37 -14 64 -5 46 15 56 7 42 -31
-11 -28 -10 -33 16 -55 15 -13 36 -24 45 -24 31 0 62 29 62 59 0 46 -25 59
-130 67 -52 4 -103 11 -112 16 -12 5 -18 5 -18 -1z"/>
<path d="M82 510 c-35 -9 -69 -23 -75 -29 -14 -14 -16 -14 101 5 95 15 212 13
242 -6 14 -9 -7 -14 -95 -26 -99 -13 -113 -43 -35 -71 60 -21 64 -33 13 -34
-55 -1 -87 -13 -91 -31 -2 -10 7 -18 23 -22 32 -8 24 -23 -18 -34 -49 -13 -41
-37 18 -57 19 -7 19 -7 -2 -16 -35 -13 -29 -39 10 -40 30 0 31 -1 9 -11 -26
-13 -24 -32 4 -36 14 -2 16 -1 6 6 -11 7 -8 11 12 16 29 7 34 23 11 32 -22 9
-18 19 11 33 21 9 24 14 14 26 -7 8 -24 15 -39 16 -29 0 -26 2 47 29 40 15 37
31 -9 47 l-34 12 33 0 c18 1 49 8 68 16 50 21 42 46 -21 66 l-50 16 35 6 c19
3 59 8 89 11 30 3 62 12 70 20 13 14 13 18 -3 35 -39 43 -227 55 -344 21z"/>
<path d="M174 79 c-10 -17 13 -36 27 -22 12 12 4 33 -11 33 -5 0 -12 -5 -16
-11z"/>
</g>
</svg>
